<svg id="레이어_1" data-name="레이어 1" xmlns="http://www.w3.org/2000/svg" viewBox="0 0 16 16"><defs><style>.cls-1{fill:#444;}</style></defs><path class="cls-1" d="M11.83,1.12A1.37,1.37,0,0,0,10.48,0a.28.28,0,0,0-.27.28.27.27,0,0,0,.27.28.84.84,0,0,1,.83.84.84.84,0,0,1-.83.85.27.27,0,0,0-.27.28.28.28,0,0,0,.27.28,1.38,1.38,0,0,0,1.35-1.13h3.62V4.21H.55V1.68H5.24a.28.28,0,0,0,.28-.28.29.29,0,0,0-.28-.28h-.5a.82.82,0,0,1,1.6.28.84.84,0,0,1-.82.85.27.27,0,0,0-.28.28.28.28,0,0,0,.28.28A1.4,1.4,0,0,0,6.9,1.4,1.39,1.39,0,0,0,5.52,0,1.37,1.37,0,0,0,4.17,1.12H0V16H16V1.12Zm3.62,14.32H.55V4.77h14.9Z"/><path class="cls-1" d="M7.17.56A.84.84,0,0,1,8,1.4a.84.84,0,0,1-.83.85.27.27,0,0,0-.27.28.28.28,0,0,0,.27.28A1.4,1.4,0,0,0,8.55,1.4,1.39,1.39,0,0,0,7.17,0,.28.28,0,0,0,6.9.28.27.27,0,0,0,7.17.56Z"/><path class="cls-1" d="M8.83.56a.85.85,0,0,1,0,1.69.28.28,0,0,0-.28.28.29.29,0,0,0,.28.28A1.4,1.4,0,0,0,10.21,1.4,1.39,1.39,0,0,0,8.83,0a.29.29,0,0,0-.28.28A.28.28,0,0,0,8.83.56Z"/><polygon class="cls-1" points="11.75 8.1 6.94 13 4.25 10.28 5.34 9.18 6.94 10.79 10.65 7 11.75 8.1"/></svg>