<svg id="레이어_1" data-name="레이어 1" xmlns="http://www.w3.org/2000/svg" viewBox="0 0 15.9 15.9"><defs><style>.cls-1{fill:#222;stroke:#222;stroke-miterlimit:10;stroke-width:0.3px;}</style></defs><path class="cls-1" d="M15.55,6.49H14.37a6.36,6.36,0,0,0-.8-1.92l.83-.84a.25.25,0,0,0,0-.36L12.63,1.59a.27.27,0,0,0-.36,0l-.84.84a6.36,6.36,0,0,0-1.92-.8V.45A.25.25,0,0,0,9.26.2H6.74a.25.25,0,0,0-.25.25V1.63a6.36,6.36,0,0,0-1.92.8l-.84-.84a.27.27,0,0,0-.36,0L1.59,3.37a.27.27,0,0,0,0,.36l.84.84a6.36,6.36,0,0,0-.8,1.92H.45a.25.25,0,0,0-.25.25V9.26a.25.25,0,0,0,.25.25H1.63a6.36,6.36,0,0,0,.8,1.92l-.84.84a.27.27,0,0,0,0,.36l1.78,1.78a.27.27,0,0,0,.36,0l.84-.84a6.36,6.36,0,0,0,1.92.8v1.18a.25.25,0,0,0,.25.25H9.26a.25.25,0,0,0,.25-.25V14.37a6.36,6.36,0,0,0,1.92-.8l.84.83a.25.25,0,0,0,.36,0l1.78-1.78a.26.26,0,0,0,0-.35l-.84-.84a6.36,6.36,0,0,0,.8-1.92h1.18a.25.25,0,0,0,.25-.25V6.74A.25.25,0,0,0,15.55,6.49ZM15.3,9H14.16a.24.24,0,0,0-.24.2A6,6,0,0,1,13,11.33a.24.24,0,0,0,0,.32l.8.8-1.42,1.42-.8-.8a.24.24,0,0,0-.32,0,6,6,0,0,1-2.12.88.24.24,0,0,0-.2.24V15.3H7V14.16a.24.24,0,0,0-.2-.24A6,6,0,0,1,4.67,13a.24.24,0,0,0-.32,0l-.8.8L2.13,12.45l.8-.8a.24.24,0,0,0,0-.32,6,6,0,0,1-.88-2.12A.24.24,0,0,0,1.84,9H.7V7H1.84a.24.24,0,0,0,.24-.2A6,6,0,0,1,3,4.67a.24.24,0,0,0,0-.32l-.8-.8L3.55,2.13l.8.8a.24.24,0,0,0,.32,0,6,6,0,0,1,2.12-.88A.24.24,0,0,0,7,1.84V.7H9V1.84a.24.24,0,0,0,.2.24A6.08,6.08,0,0,1,11.33,3a.24.24,0,0,0,.32,0l.8-.8,1.42,1.42-.8.8a.24.24,0,0,0,0,.32,6,6,0,0,1,.88,2.12.24.24,0,0,0,.24.2H15.3Z" transform="translate(-0.05 -0.05)"/><path class="cls-1" d="M8,5.23A2.77,2.77,0,1,0,10.77,8,2.77,2.77,0,0,0,8,5.23Zm0,5A2.26,2.26,0,1,1,10.26,8,2.26,2.26,0,0,1,8,10.26Z" transform="translate(-0.05 -0.05)"/></svg>