<svg id="레이어_1" data-name="레이어 1" xmlns="http://www.w3.org/2000/svg" viewBox="0 0 15.7 15.7"><defs><style>.cls-1{fill:#222;stroke:#222;stroke-miterlimit:10;stroke-width:0.1px;}</style></defs><path class="cls-1" d="M.7,10A.33.33,0,0,1,.38,9.7,7.91,7.91,0,0,1,.2,8a7.8,7.8,0,0,1,14-4.75.33.33,0,1,1-.52.4A7.07,7.07,0,0,0,8,.85,7.16,7.16,0,0,0,.85,8,7.08,7.08,0,0,0,1,9.55a.32.32,0,0,1-.25.39Z" transform="translate(-0.15 -0.15)"/><path class="cls-1" d="M8,15.8a7.73,7.73,0,0,1-6.18-3.05.33.33,0,0,1,.52-.4A7.07,7.07,0,0,0,8,15.15,7.16,7.16,0,0,0,15.15,8,7,7,0,0,0,15,6.45a.31.31,0,0,1,.24-.39.33.33,0,0,1,.39.24A7.14,7.14,0,0,1,15.8,8,7.81,7.81,0,0,1,8,15.8Z" transform="translate(-0.15 -0.15)"/><path class="cls-1" d="M1.86,15.8a.32.32,0,0,1-.33-.32l0-3.25A.32.32,0,0,1,1.59,12a.3.3,0,0,1,.23-.1H5.07a.33.33,0,1,1,0,.65H2.15l0,2.92a.32.32,0,0,1-.32.33Z" transform="translate(-0.15 -0.15)"/><path class="cls-1" d="M14.17,4.1H10.92a.33.33,0,0,1,0-.65h2.93V.53a.33.33,0,1,1,.65,0V3.77A.33.33,0,0,1,14.17,4.1Z" transform="translate(-0.15 -0.15)"/></svg>