<svg id="레이어_1" data-name="레이어 1" xmlns="http://www.w3.org/2000/svg" viewBox="0 0 37.32 37.32"><defs><style>.cls-1{fill:#545454;}</style></defs><path class="cls-1" d="M21.61,36.84h-5.9a1.06,1.06,0,0,1-1.06-1.05V31.66l-.44-.16c-.6-.21-1.3-.46-1.94-.75L9.4,33.62a1.06,1.06,0,0,1-1.49,0L3.7,29.41a1.06,1.06,0,0,1-.31-.75,1,1,0,0,1,.31-.74l2.87-2.87a15.54,15.54,0,0,1-1.1-3.56H1.54A1.05,1.05,0,0,1,.48,20.43V15.71a1.06,1.06,0,0,1,1.06-1.06h4a19.06,19.06,0,0,1,1-2.38L3.7,9.4a1.06,1.06,0,0,1,0-1.49L7.91,3.7a1.06,1.06,0,0,1,1.49,0l2.86,2.86a18.76,18.76,0,0,1,2.39-1v-4A1.06,1.06,0,0,1,15.71.48h5.9a1.05,1.05,0,0,1,1.06,1.06v4a18.18,18.18,0,0,1,2.39,1L27.92,3.7a1.06,1.06,0,0,1,1.49,0l4.21,4.21a1.06,1.06,0,0,1,.31.75,1,1,0,0,1-.31.74l-2.85,2.86a13.94,13.94,0,0,1,1,2.39h4a1.06,1.06,0,0,1,1.05,1.06v4.72a1.05,1.05,0,0,1-1.05,1.06H31.88a9.3,9.3,0,0,1-1.1,3.59l2.84,2.84a1.06,1.06,0,0,1,0,1.49l-4.21,4.21a1.06,1.06,0,0,1-1.49,0l-2.87-2.87c-.64.29-1.34.54-1.94.75l-.44.16v4.13A1.05,1.05,0,0,1,21.61,36.84Zm-4.85-2.11h3.8V31a1,1,0,0,1,.55-.92,8.86,8.86,0,0,1,1.3-.52,14.22,14.22,0,0,0,2.28-1,1.06,1.06,0,0,1,1.3.15l2.67,2.67,2.72-2.72L28.71,26a1.06,1.06,0,0,1-.15-1.3,8.26,8.26,0,0,0,1.34-4.37A1.05,1.05,0,0,1,31,19.38h3.78V16.76H31a1,1,0,0,1-1-.8,12.29,12.29,0,0,0-1.37-3.33,1.06,1.06,0,0,1,.15-1.3l2.67-2.67L28.66,5.94,26,8.61a1.06,1.06,0,0,1-1.3.16,13.8,13.8,0,0,0-3.28-1.36,1.06,1.06,0,0,1-.85-1V2.59h-3.8V6.37a1,1,0,0,1-.83,1,14,14,0,0,0-3.3,1.37,1.06,1.06,0,0,1-1.3-.16L8.66,5.94,5.94,8.66l2.67,2.67a1.06,1.06,0,0,1,.15,1.3A15.57,15.57,0,0,0,7.39,16a1,1,0,0,1-1,.8H2.59v2.62H6.37a1,1,0,0,1,1,.91,12.85,12.85,0,0,0,1.35,4.4A1.06,1.06,0,0,1,8.61,26L5.94,28.66l2.72,2.72,2.67-2.67a1,1,0,0,1,1.3-.15,14.61,14.61,0,0,0,2.28,1,8.42,8.42,0,0,1,1.3.52,1,1,0,0,1,.55.92Z"/><path class="cls-1" d="M18.66,26.21a7.55,7.55,0,1,1,7.55-7.55A7.56,7.56,0,0,1,18.66,26.21Zm0-13a5.44,5.44,0,1,0,5.44,5.44A5.45,5.45,0,0,0,18.66,13.22Z"/></svg>