<svg xmlns="http://www.w3.org/2000/svg" viewBox="0 0 32.42 33.52"><defs><style>.cls-1{fill:#545454;}</style></defs><g id="레이어_2" data-name="레이어 2"><g id="레이어_1-2" data-name="레이어 1"><path class="cls-1" d="M12.51,25A12.51,12.51,0,1,1,25,12.51,12.52,12.52,0,0,1,12.51,25Zm0-23.16A10.65,10.65,0,1,0,23.16,12.51,10.67,10.67,0,0,0,12.51,1.86Z"/><path class="cls-1" d="M31.48,33.52a.94.94,0,0,1-.66-.28l-10.6-10.6a.94.94,0,1,1,1.33-1.32l10.6,10.59a.94.94,0,0,1,0,1.33A1,1,0,0,1,31.48,33.52Z"/></g></g></svg>