<svg id="Capa_1" data-name="Capa 1" xmlns="http://www.w3.org/2000/svg" viewBox="0 0 512 502.74"><defs><style>.cls-1{fill:#444;}</style></defs><path class="cls-1" d="M509.73,15.26A19.83,19.83,0,0,0,492.15,4.63H19.84A19.84,19.84,0,0,0,3.53,35.76L181.25,292.62v194.9a19.85,19.85,0,0,0,19.85,19.85H310.9a19.85,19.85,0,0,0,19.85-19.85V292.62L508.47,35.76A19.85,19.85,0,0,0,509.73,15.26ZM294.58,275.14a19.87,19.87,0,0,0-3.52,11.29V467.68H220.94V286.43a19.84,19.84,0,0,0-3.53-11.3L57.71,44.32H454.3Z" transform="translate(0 -4.63)"/></svg>