<svg id="레이어_1" data-name="레이어 1" xmlns="http://www.w3.org/2000/svg" viewBox="0 0 15.8 8.7"><defs><style>.cls-1{fill:#222;stroke:#222;stroke-miterlimit:10;stroke-width:0.2px;}</style></defs><path class="cls-1" d="M15.22.89,8,8.43.78.89A.34.34,0,0,0,.3.9a.36.36,0,0,0,0,.49L7.76,9.18a.33.33,0,0,0,.48,0L15.7,1.39a.37.37,0,0,0,0-.5.34.34,0,0,0-.48,0Z" transform="translate(-0.1 -0.69)"/><path class="cls-1" d="M8,9.29a.32.32,0,0,1-.24-.11L.3,1.39a.37.37,0,0,1,0-.5.33.33,0,0,1,.47,0L8,8.43,15.22.89a.34.34,0,0,1,.48,0,.38.38,0,0,1,0,.51h0L8.24,9.18A.34.34,0,0,1,8,9.29Z" transform="translate(-0.1 -0.69)"/></svg>