<svg id="레이어_1" data-name="레이어 1" xmlns="http://www.w3.org/2000/svg" viewBox="0 0 37.32 37.32"><defs><style>.cls-1{fill:#545454;}</style></defs><path class="cls-1" d="M4.62,11.43a1.05,1.05,0,0,1-1-1.26L5.33,1.32a1.05,1.05,0,1,1,2.07.4L5.93,9.19l7.58-.68a1.05,1.05,0,1,1,.19,2.1l-9,.81Z"/><path class="cls-1" d="M29.67,36.86l-.2,0a1,1,0,0,1-.83-1.24l1.47-7.47-7.59.68a1.08,1.08,0,0,1-1.15-1,1.05,1.05,0,0,1,1-1.14l9-.81a1.09,1.09,0,0,1,.88.35,1.07,1.07,0,0,1,.25.91L30.71,36A1.06,1.06,0,0,1,29.67,36.86Z"/><path class="cls-1" d="M18.74,34.38A16.54,16.54,0,0,1,10.05,32,16.32,16.32,0,0,1,2.27,18.11a1.06,1.06,0,0,1,1-1.06h0A1.06,1.06,0,0,1,4.38,18.1a14.21,14.21,0,0,0,6.78,12.06c6.39,3.95,15.24,2.22,19.33-3.77A1,1,0,0,1,32,26.11a1.06,1.06,0,0,1,.28,1.47A16.31,16.31,0,0,1,18.74,34.38Z"/><path class="cls-1" d="M34,20H33.9a1.05,1.05,0,0,1-1-1.12,14.27,14.27,0,0,0-6.76-13A15.18,15.18,0,0,0,14.51,4.13a14.18,14.18,0,0,0-8.92,6.69A1.06,1.06,0,0,1,3.76,9.76,16.29,16.29,0,0,1,14,2.08a17.3,17.3,0,0,1,13.28,2A16.37,16.37,0,0,1,35,19,1.05,1.05,0,0,1,34,20Z"/></svg>