<svg xmlns="http://www.w3.org/2000/svg" viewBox="0 0 36.05 36.05"><defs><style>.cls-1{fill:#545454;}</style></defs><g id="레이어_2" data-name="레이어 2"><g id="레이어_1-2" data-name="레이어 1"><path class="cls-1" d="M18,36.05a18,18,0,1,1,18-18A18,18,0,0,1,18,36.05ZM18,2.11A15.92,15.92,0,1,0,33.94,18,15.93,15.93,0,0,0,18,2.11Z"/><path class="cls-1" d="M20,14.62H16a.67.67,0,0,1-.67-.67V10.27A.67.67,0,0,1,16,9.6h4a.67.67,0,0,1,.67.67V14A.67.67,0,0,1,20,14.62Zm-3.36-1.34h2.69V10.94H16.68Z"/><path class="cls-1" d="M20,27.82H16a.67.67,0,0,1-.67-.67V17.74a.67.67,0,0,1,.67-.68h4a.67.67,0,0,1,.67.68v9.41A.67.67,0,0,1,20,27.82Zm-3.36-1.34h2.69V18.41H16.68Z"/><rect class="cls-1" x="16.68" y="10.47" width="2.69" height="2.8"/><rect class="cls-1" x="16.22" y="18.02" width="3.14" height="8.96"/></g></g></svg>