<svg id="레이어_1" data-name="레이어 1" xmlns="http://www.w3.org/2000/svg" viewBox="0 0 37.32 37.32"><defs><style>.cls-1{fill:#545454;}</style></defs><path class="cls-1" d="M18.63,21.94a1.05,1.05,0,0,1-1.05-1.06V3.74a1.06,1.06,0,0,1,2.11,0V20.88A1.05,1.05,0,0,1,18.63,21.94Z"/><path class="cls-1" d="M18.63,21.94a1,1,0,0,1-.74-.31l-7.35-7.35A1.05,1.05,0,0,1,12,12.79l6.6,6.6,6.6-6.6a1.06,1.06,0,0,1,1.49,0,1,1,0,0,1,0,1.49l-7.34,7.35A1.05,1.05,0,0,1,18.63,21.94Z"/><path class="cls-1" d="M35.68,34.63h-34A1.05,1.05,0,0,1,.59,33.58V24.17a1.05,1.05,0,0,1,1.06-1.06h34a1.05,1.05,0,0,1,1,1.06v9.41A1,1,0,0,1,35.68,34.63Zm-33-2.11H34.62v-7.3H2.7Z"/></svg>